<svg width="122" height="48" viewBox="0 0 122 48" fill="none" xmlns="http://www.w3.org/2000/svg">
<path d="M39.3287 24.5261C39.3216 26.0393 38.7636 27.4982 37.7591 28.6299C36.1958 30.4657 34.1337 31.809 31.8227 32.4969C30.0931 33.0655 28.2856 33.3613 26.465 33.3737C25.8377 33.3759 25.2109 33.3378 24.5885 33.2597C21.0849 32.8842 17.655 31.9979 14.408 30.6291C12.1143 32.4057 9.30328 33.3848 6.40221 33.4176C3.08764 33.4176 1.02699 32.5407 0.264115 30.6642C0.0784675 30.1744 -0.0108572 29.6534 0.0010517 29.1297C0.0542206 28.4181 0.366151 27.7505 0.877922 27.2532C1.36742 26.7357 1.96382 26.3311 2.62559 26.0676C3.28737 25.8041 3.99863 25.6881 4.70985 25.7274C5.69902 25.7141 6.68332 25.8683 7.62106 26.1834C8.7253 26.6025 9.79786 27.1006 10.8304 27.6741C12.1106 28.3668 13.0489 28.8666 13.6627 29.1735C15.0118 27.7945 16.1895 26.2576 17.1702 24.5963C18.3196 22.7368 19.3732 20.8198 20.3269 18.8528C21.233 16.9763 22.4022 14.8893 23.8344 12.5919C25.0486 10.5044 26.4548 8.53462 28.0346 6.70812L30.218 4.21781C28.0166 3.84444 25.7866 3.66546 23.5538 3.68292C20.8615 3.71319 18.1803 4.03363 15.5567 4.6387C11.9947 5.24077 8.74917 7.05246 6.36713 9.7684C5.2119 10.9736 4.51938 12.5481 4.41171 14.2141C4.35955 15.0445 4.6043 15.8665 5.10225 16.5331C5.6002 17.1997 6.31891 17.6676 7.13001 17.8531C8.22496 18.2041 9.40223 18.2041 10.4972 17.8531C11.1995 17.6326 11.8375 17.2444 12.3562 16.722C12.8792 16.2413 13.3205 15.6785 13.6627 15.0559C13.8762 14.684 14.0105 14.2721 14.0573 13.8458C14.0488 13.7925 14.0528 13.7379 14.069 13.6863C14.0851 13.6347 14.1129 13.5876 14.1502 13.5486C14.1876 13.5095 14.2335 13.4796 14.2843 13.4612C14.3351 13.4428 14.3894 13.4364 14.4431 13.4425C14.6974 13.4425 14.8377 13.6529 14.864 13.9861C14.7413 14.8822 14.4058 15.7359 13.8856 16.4758C13.3654 17.2157 12.6756 17.8203 11.8739 18.239C10.9178 18.7904 9.83814 19.0919 8.73468 19.1158L6.74418 18.7651C4.04343 17.8298 2.69304 16.076 2.69304 13.5039C2.7781 11.5338 3.61245 9.67061 5.02552 8.29525C7.52167 5.48926 11.1958 3.73552 16.0478 3.03403C18.4795 2.6952 20.932 2.52819 23.3872 2.53422C25.9947 2.55336 28.5928 2.84727 31.1387 3.41109C31.6929 2.90207 32.3268 2.48735 33.0152 2.18346C33.3178 2.05236 33.6319 1.94963 33.9535 1.87657C34.0125 1.86974 34.072 1.88538 34.1201 1.9204C34.2779 1.9204 34.3042 1.99933 34.2165 2.16594C33.9777 2.46198 33.6788 2.70405 33.3397 2.8762C32.9678 3.07636 32.6629 3.38125 32.4628 3.75307C35.941 4.55394 38.4606 5.79909 40.0214 7.48853C40.7669 8.24114 41.2047 9.24489 41.249 10.3033C41.2164 11.3254 40.9138 12.3207 40.3722 13.1882C39.5402 14.5393 38.2671 15.5615 36.7682 16.0819C35.1685 16.7209 33.4733 17.0884 31.7525 17.1692C33.363 17.6746 34.8971 18.3974 36.3122 19.3175C37.2324 19.8394 37.9969 20.5971 38.5271 21.5126C39.0573 22.428 39.334 23.4682 39.3287 24.5261ZM12.7946 29.8487C9.81323 28.4194 7.91919 27.5601 7.13001 27.2795C6.37647 27.006 5.58163 26.8636 4.77999 26.8586C4.42748 26.8427 4.0761 26.909 3.75352 27.052C3.43094 27.195 3.14597 27.411 2.92103 27.6828C2.52328 28.0837 2.27823 28.611 2.2283 29.1735C2.22985 29.6211 2.33488 30.0623 2.53521 30.4625C3.0964 31.6112 4.28895 32.2163 6.04269 32.2163C8.49455 32.2032 10.8715 31.3697 12.7946 29.8487ZM25.9476 32.2601C28.5889 32.3361 31.1702 31.4653 33.2257 29.8049C35.3886 28.0511 36.473 26.1746 36.4788 24.1754C36.4788 22.0884 35.3652 20.5013 33.1467 19.4315C32.1712 18.9861 31.1663 18.6082 30.1391 18.3003C28.9553 17.9321 27.9995 17.6164 27.2717 17.3621C26.5439 17.1078 26.123 16.871 26.0266 16.6343C26.0266 16.1549 26.3948 15.9006 27.1314 15.8714C27.6225 15.8714 28.359 15.8714 29.3587 15.9854C30.3583 16.0994 31.2089 16.0906 31.9191 16.0819C32.841 16.0217 33.7387 15.7614 34.5497 15.319C35.5415 14.8455 36.4342 14.1879 37.1803 13.3811C38.1907 12.4418 38.8158 11.1604 38.9341 9.78593C38.9341 7.3833 36.6893 5.6588 32.1997 4.6124C30.8435 6.47721 28.4175 10.4144 24.9217 16.4238C21.4259 22.4333 18.7339 26.4611 16.8457 28.5071L15.3901 29.8838C18.3078 31.0901 21.3859 31.864 24.5271 32.1812C24.993 32.2332 25.4613 32.2595 25.9301 32.2601H25.9476Z" fill="#B3B3B3"/>
<path d="M43.1167 31.0325C43.7008 30.9888 44.2478 30.7294 44.6512 30.3047C46.1167 28.5564 47.3299 26.6113 48.2552 24.5261C48.4306 24.1403 48.6059 24.0263 48.7901 24.1753C48.8413 24.2499 48.866 24.3394 48.8602 24.4296C48.806 24.7366 48.7023 25.0327 48.5533 25.3065C48.3516 25.7537 48.1675 26.1834 48.0009 26.5078C47.8343 26.8323 47.5186 27.4461 47.0451 28.2616C46.6732 28.9173 46.2449 29.5393 45.7649 30.1205C44.7126 31.3218 43.7305 31.8743 42.7923 31.8743C42.4113 31.9045 42.0287 31.8403 41.6784 31.6874C41.3282 31.5344 41.021 31.2974 40.7842 30.9974C40.3831 30.4542 40.1679 29.7961 40.1704 29.1209C40.19 28.3445 40.3597 27.5792 40.6703 26.8673L43.1167 20.624C43.1751 20.4248 43.2018 20.2177 43.1956 20.0102C43.1478 19.6387 42.9889 19.2902 42.7397 19.0106H44.8442C45.4317 19.0106 45.7736 19.1158 45.8789 19.335C45.9841 19.5542 45.8789 19.8874 45.6509 20.3522L42.5818 27.5075C42.2026 28.2583 41.9817 29.0791 41.9329 29.9188C41.9329 30.6642 42.3275 31.0325 43.1167 31.0325ZM46.8697 17.0026C46.5459 17.2969 46.1236 17.4596 45.6859 17.4585C45.4899 17.4682 45.2943 17.432 45.1147 17.3528C44.9351 17.2737 44.7764 17.1537 44.6512 17.0026C44.5245 16.8491 44.4316 16.6705 44.3787 16.4786C44.3258 16.2866 44.3141 16.0857 44.3443 15.8889C44.4238 15.4533 44.6534 15.0592 44.9932 14.7753C45.3193 14.4789 45.7451 14.3161 46.1858 14.3193C46.384 14.3128 46.5811 14.3504 46.7631 14.4292C46.945 14.5081 47.1072 14.6263 47.238 14.7753C47.368 14.9265 47.4617 15.1055 47.5119 15.2985C47.562 15.4916 47.5673 15.6935 47.5274 15.8889C47.4418 16.3195 47.2093 16.7069 46.8697 16.985V17.0026Z" fill="#B3B3B3"/>
<path d="M53.4635 16.5202C53.4635 17.6894 52.7357 18.7738 51.2801 19.7734C51.7975 19.7734 52.4727 19.7734 53.332 19.7734C54.1913 19.7734 55.2699 19.7032 56.5677 19.5805C56.6396 19.7766 56.6666 19.9864 56.6466 20.1943C56.5909 20.7113 56.4329 21.2121 56.1818 21.6674C55.8749 22.3163 55.6031 22.8775 55.3576 23.351C55.1121 23.8245 54.8928 24.2717 54.6736 24.6926C54.4544 25.1135 54.2177 25.6309 53.9458 26.2447C53.674 26.8585 53.4548 27.4197 53.2706 27.9283C52.6393 29.8662 52.7357 30.8395 53.5775 30.8395C54.6532 30.8395 56.2374 28.7058 58.3302 24.4383C58.5056 24.1139 58.6546 23.9824 58.7686 24.0613C58.8203 24.088 58.8639 24.1282 58.8948 24.1775C58.9256 24.2269 58.9426 24.2837 58.944 24.3419C58.8281 24.7588 58.6602 25.1595 58.4442 25.5344C58.111 26.2096 57.7514 26.9023 57.3744 27.6214C56.8767 28.5094 56.289 29.3439 55.6206 30.1117C54.6473 31.2867 53.7178 31.8654 52.8234 31.8654C51.929 31.8654 51.1398 31.2692 50.754 30.0678C50.663 29.7309 50.6246 29.3819 50.64 29.0331C50.6808 28.4018 50.8291 27.782 51.0785 27.2005C51.4732 26.2348 51.9393 25.2998 52.4727 24.4033C53.1128 23.3072 53.4723 22.6495 53.5512 22.4741C53.6219 22.2952 53.6604 22.1053 53.6652 21.9129C53.6652 21.1238 52.6393 20.7029 50.6049 20.6503L50.1402 21.8779C48.5326 26.0869 46.9893 28.9074 45.5103 30.3397C45.256 30.5677 45.1245 30.4887 45.1245 30.1117C45.1296 30.0162 45.1566 29.9232 45.2034 29.8399C46.7293 27.7798 47.9765 25.5272 48.9126 23.1406C49.9022 20.7767 50.6342 18.3131 51.096 15.7924C51.2538 14.9944 51.6046 14.5999 52.1745 14.5999C52.7445 14.5999 53.1391 14.9594 53.3934 15.6784C53.4658 15.9527 53.4895 16.2377 53.4635 16.5202Z" fill="#B3B3B3"/>
<path d="M57.2871 28.8139C57.2871 26.6919 58.3072 23.1435 60.3474 18.1687H58.3569C58.2975 18.1693 58.2398 18.1483 58.1946 18.1096C58.1495 18.0709 58.1199 18.0171 58.1114 17.9583C58.064 17.822 58.064 17.6736 58.1114 17.5374C58.1316 17.4764 58.1703 17.4234 58.2222 17.3856C58.2741 17.3479 58.3366 17.3273 58.4008 17.3269H60.6982C61.6218 15.3101 62.4753 13.6265 63.2586 12.2761C63.8018 11.2285 64.5434 10.2964 65.442 9.53153C65.8523 9.17673 66.3479 8.93496 66.8801 8.83003C67.093 8.81612 67.3068 8.83987 67.5114 8.90018C67.8156 9.07192 68.0616 9.33061 68.2179 9.64307C68.3741 9.95552 68.4334 10.3075 68.3883 10.6539C68.3262 11.7709 68.0273 12.8618 67.5114 13.8545C66.9239 15.0997 66.354 16.2659 65.7577 17.362H67.5904C67.6509 17.3611 67.7097 17.3818 67.7563 17.4203C67.8029 17.4589 67.8342 17.5128 67.8447 17.5724C67.8966 17.7079 67.8966 17.8578 67.8447 17.9933C67.8261 18.0536 67.789 18.1064 67.7386 18.1442C67.6882 18.182 67.6271 18.2029 67.5641 18.2038H65.3368C63.9617 20.5472 62.2479 22.6747 60.251 24.5172L59.3741 28.4281C59.2983 28.747 59.2601 29.0736 59.2601 29.4014C59.2634 29.7441 59.3572 30.0799 59.5319 30.3747C59.6088 30.5382 59.7343 30.674 59.8912 30.7635C60.0482 30.8529 60.229 30.8917 60.4088 30.8745C60.925 30.8498 61.4263 30.6928 61.8644 30.4186C63.0833 29.4979 64.4424 27.5688 65.9155 24.6312C65.979 24.4485 66.1111 24.2975 66.2838 24.2103C66.4241 24.2103 66.503 24.2103 66.5294 24.3068C66.544 24.5008 66.5045 24.6951 66.4154 24.868C65.8252 26.1565 65.1606 27.4097 64.4249 28.621C63.0482 30.8395 61.575 31.9443 60.0405 31.9443C59.6697 31.9542 59.3014 31.8805 58.9629 31.7287C58.6244 31.5769 58.3244 31.3509 58.0851 31.0675C57.5435 30.4443 57.2584 29.639 57.2871 28.8139ZM64.4862 18.1687H62.7325C62.4285 18.8819 61.7387 20.5801 60.6631 23.2633C62.1177 21.7081 63.3995 20 64.4862 18.1687ZM64.9861 17.2918C66.6697 14.2754 67.5114 12.1884 67.5114 11.0134C67.5114 10.5049 67.4238 10.2418 67.2396 10.2418C67.0555 10.2418 66.5294 10.6539 65.9594 11.4694C64.8548 13.3374 63.8877 15.2834 63.0657 17.2918H64.9861Z" fill="#B3B3B3"/>
<path d="M72.7549 30.1554C72.7549 30.8657 73.0092 31.2252 73.5177 31.2252C74.7161 31.2252 76.4143 28.9775 78.6123 24.482C78.7877 24.1313 78.9456 23.991 79.0859 24.0611C79.1462 24.0874 79.1979 24.1301 79.2351 24.1844C79.2724 24.2387 79.2936 24.3023 79.2963 24.3681C79.2044 24.7528 79.0567 25.1221 78.8579 25.4641C78.5685 26.0604 78.2704 26.6391 77.981 27.2179C77.6916 27.7966 77.2532 28.4893 76.692 29.3837C75.5229 31.1726 74.2748 32.067 72.9478 32.067C72.5398 32.077 72.1359 31.9833 71.7739 31.7947C71.412 31.6061 71.1038 31.3286 70.8784 30.9884C70.6214 30.5835 70.4987 30.1079 70.5276 29.6293C70.5542 28.9186 70.6841 28.2155 70.9134 27.5423C71.4682 26.1428 72.1739 24.8079 73.0179 23.5613C73.2484 23.2406 73.3932 22.8663 73.4388 22.474C73.4388 22.2022 73.2196 22.0707 72.7899 22.0707C72.3603 22.0707 71.5272 22.6406 70.2996 23.8244C68.0951 26.0294 66.2832 28.5945 64.9419 31.4093C64.7666 31.7951 64.2931 31.9793 63.5214 31.9793C63.0859 31.957 62.6497 32.0104 62.2324 32.1371C67.0844 22.0531 70.5919 15.0206 72.7549 11.0396C73.0915 10.3572 73.5224 9.72548 74.0351 9.16313C74.2085 8.98949 74.4151 8.85262 74.6426 8.76071C74.8701 8.6688 75.1138 8.62374 75.3592 8.62824C75.6271 8.64112 75.8938 8.67336 76.1571 8.72469C76.4462 8.7774 76.7407 8.79507 77.034 8.7773C76.274 9.56648 74.9032 11.7557 72.9215 15.3451C70.9397 18.9344 69.0428 22.5792 67.2306 26.2796C68.2076 25.0207 69.29 23.8473 70.4662 22.7722C71.5443 21.8483 72.7205 21.0456 73.9737 20.3783C74.8876 19.7852 75.9201 19.3991 76.9989 19.2471C77.143 19.2462 77.2859 19.273 77.4198 19.326C74.3099 24.8386 72.7549 28.4484 72.7549 30.1554Z" fill="#B3B3B3"/>
<path d="M86.6886 29.6557C86.6886 30.4711 87.0218 30.8833 87.6882 30.8833C88.8924 30.8833 90.4883 28.8782 92.4759 24.868L92.6863 24.412C92.7117 24.3414 92.7524 24.2772 92.8054 24.2241C92.8585 24.1711 92.9226 24.1304 92.9933 24.1051C93.1336 24.0525 93.23 24.1051 93.2738 24.2015C93.3192 24.388 93.2942 24.5847 93.2037 24.754C91.1635 29.4949 89.0941 31.8683 86.9955 31.8741C86.6685 31.882 86.345 31.8054 86.0562 31.6518C85.7675 31.4982 85.5232 31.2728 85.3469 30.9973C84.9703 30.4653 84.7597 29.8337 84.7419 29.1822C84.7376 28.6215 84.7994 28.0623 84.9261 27.5161C83.4529 29.9626 82.1727 31.3568 81.1029 31.69C80.8264 31.8122 80.5283 31.8778 80.226 31.8829C79.9301 31.8815 79.6356 31.8432 79.3492 31.7689C78.0952 31.4357 77.4727 30.4361 77.4727 28.7788C77.5167 27.4881 77.8147 26.2188 78.3495 25.0433C78.9612 23.624 79.7797 22.3032 80.7784 21.1237C81.7589 19.9166 83.083 19.0359 84.5753 18.5983C85.1874 18.4042 85.8273 18.3124 86.4693 18.3265C87.3227 18.3599 88.1557 18.5974 88.8983 19.0192C90.652 15.7456 92.1339 12.7204 93.344 9.94362C93.5511 9.31968 93.9131 8.75851 94.3962 8.31264C94.6721 8.10065 95.0048 7.9755 95.352 7.95312H95.8869C96.1311 7.97241 96.374 8.0046 96.6147 8.04958C96.9358 8.10649 97.2627 8.12415 97.5881 8.10219C97.0035 8.64 95.4485 11.2443 92.9231 15.9151C89.7079 21.8895 87.7671 25.8705 87.1007 27.8581C86.8715 28.4324 86.7324 29.0388 86.6886 29.6557ZM88.5388 19.5892C88.3521 19.4161 88.1324 19.2825 87.8928 19.1966C87.6532 19.1107 87.3986 19.0742 87.1445 19.0894C86.1883 19.2618 85.3108 19.7313 84.6367 20.431C82.8931 21.8941 81.449 23.6807 80.3839 25.6922C79.7526 26.7266 79.374 27.8952 79.279 29.1032C79.272 29.4858 79.3562 29.8645 79.5245 30.2081C79.5895 30.36 79.6987 30.4889 79.8378 30.5781C79.977 30.6672 80.1397 30.7124 80.3049 30.7079C81.1818 30.7079 82.2516 29.831 83.5231 28.0773C85.3622 25.3501 87.037 22.5157 88.5388 19.5892Z" fill="#B3B3B3"/>
<path d="M102.349 24.6224C101.701 25.7667 101.194 26.9858 100.841 28.2526C100.693 28.8947 100.608 29.5496 100.586 30.2081C100.586 30.7079 100.779 30.9534 101.165 30.9534C101.551 30.9534 102.244 30.5062 102.919 29.6206C104.132 28.0375 105.172 26.3296 106.023 24.5259C106.119 24.298 106.233 24.1664 106.365 24.1401C106.497 24.1138 106.672 24.1401 106.672 24.3681C106.666 24.5291 106.627 24.6872 106.558 24.8328C104.22 29.5796 102.241 31.953 100.621 31.953C100.254 31.9505 99.8935 31.85 99.5776 31.662C99.2616 31.474 99.0015 31.2052 98.8239 30.8832C98.572 30.4122 98.4509 29.8824 98.4732 29.3487C98.4983 28.5576 98.628 27.7733 98.859 27.0162C96.8188 30.3074 95.0651 31.953 93.5978 31.953C93.1932 31.9567 92.7997 31.8204 92.4841 31.5672C92.0787 31.2401 91.7613 30.8169 91.5607 30.3362C91.3601 29.8554 91.2827 29.3321 91.3354 28.8138C91.3354 26.3118 92.4198 23.7718 94.5886 21.1938C95.7571 19.8037 97.3394 18.8236 99.1045 18.3966C99.5567 18.2758 100.022 18.2111 100.49 18.2037C101.044 18.1944 101.595 18.2985 102.107 18.5096C102.62 18.7207 103.084 19.0343 103.471 19.4313C103.586 19.5274 103.669 19.6557 103.709 19.7996C103.75 19.9434 103.747 20.0962 103.699 20.238C103.65 20.3618 103.556 20.4624 103.435 20.5193C103.315 20.5763 103.177 20.5854 103.05 20.5449C102.963 20.1306 102.728 19.762 102.389 19.5073C102.051 19.2527 101.631 19.1291 101.209 19.1595C100.116 19.1595 98.7654 20.0364 97.1578 21.7901C96.1771 22.8978 95.316 24.1058 94.5886 25.394C93.7635 26.5738 93.2506 27.9434 93.0979 29.375C93.0979 30.3659 93.4136 30.8657 94.0537 30.8657C95.5912 30.8657 97.5963 28.5274 100.069 23.8507C100.39 23.1547 100.799 22.5032 101.288 21.9129C101.451 21.7437 101.647 21.6103 101.865 21.5213C102.082 21.4322 102.316 21.3894 102.551 21.3955C102.815 21.4202 103.079 21.4582 103.34 21.5095C103.646 21.5866 103.965 21.6015 104.278 21.5533C103.507 22.4902 102.859 23.5215 102.349 24.6224Z" fill="#B3B3B3"/>
<path d="M100.815 43.9752C99.8834 44.0387 98.9574 43.7887 98.1844 43.2649C97.905 43.0767 97.6754 42.8237 97.515 42.5275C97.3547 42.2312 97.2685 41.9006 97.2637 41.5638C97.2932 40.777 97.4905 40.0057 97.8424 39.3014C98.6462 37.8744 99.9152 36.7663 101.438 36.1623C103.102 35.4263 104.835 34.8565 106.611 34.4611C108.751 33.935 110.127 33.5843 110.741 33.4089C112.113 30.6477 113.217 27.7612 114.038 24.7892C113.004 26.7473 111.757 28.5852 110.32 30.2697C109.952 30.7262 109.493 31.1013 108.972 31.3715C108.451 31.6417 107.88 31.8009 107.295 31.8393C105.918 31.8393 105.12 31.2606 104.884 30.0855C104.777 29.8335 104.753 29.5544 104.814 29.2876C104.814 28.9281 104.892 28.6738 104.901 28.5159C104.951 28.2568 105.036 28.0059 105.156 27.7706C105.305 27.4286 105.41 27.1743 105.462 27.0253C105.679 26.5533 105.922 26.0937 106.19 25.6486C105.778 25.6486 105.664 25.4469 105.839 25.0348L106.532 23.6932C107.409 22.0359 108.111 20.6329 108.681 19.4842C108.817 19.2134 109.033 18.9909 109.299 18.8467C109.566 18.7024 109.87 18.6434 110.171 18.6775H112.504C112.385 18.7877 112.259 18.8902 112.127 18.9844C111.701 19.2531 111.346 19.62 111.092 20.0542C110.171 21.6413 109.022 23.8948 107.646 26.8324C107.187 27.6447 106.889 28.5379 106.769 29.463C106.732 29.8803 106.83 30.2986 107.05 30.6555C107.147 30.7686 107.268 30.8582 107.405 30.9175C107.541 30.9767 107.69 31.0041 107.839 30.9975C108.321 30.9975 108.996 30.4889 109.864 29.463C112.266 26.3893 114.286 23.0356 115.88 19.4754C116.022 19.2102 116.239 18.9924 116.504 18.8491C116.769 18.7058 117.07 18.643 117.37 18.6687H119.44C118.784 19.12 118.246 19.7213 117.87 20.4224C117.389 21.342 116.973 22.2943 116.625 23.2723C116.181 24.4765 115.619 26.0724 114.941 28.06C114.263 30.0476 113.746 31.5412 113.389 32.5408C115.61 31.9475 117.558 30.6065 118.905 28.7439C119.791 27.3899 120.596 25.9844 121.316 24.535C121.492 24.1725 121.649 24.0322 121.79 24.1141C121.85 24.1403 121.902 24.183 121.939 24.2373C121.976 24.2916 121.997 24.3552 122 24.421C121.847 24.9345 121.635 25.4288 121.369 25.8941C120.948 26.771 120.492 27.5426 120.089 28.2704C119.605 29.0709 119.04 29.82 118.405 30.5064C117.753 31.2455 116.975 31.8631 116.108 32.3303C115.019 32.8821 113.894 33.3596 112.74 33.7596C111.247 36.7224 109.236 39.3949 106.804 41.6515C105.146 43.1106 103.023 43.934 100.815 43.9752ZM98.5965 40.1871C98.3392 40.6622 98.1952 41.1904 98.1756 41.7304C98.165 41.9434 98.2084 42.1556 98.302 42.3473C98.3955 42.539 98.536 42.7038 98.7105 42.8265C99.1061 43.0927 99.5755 43.2277 100.052 43.2123C101.531 43.2123 103.112 42.4523 104.796 40.9324C106.439 39.4586 107.928 37.8222 109.242 36.0483L110.119 34.6365C107.418 35.2696 104.756 36.0601 102.148 37.0041C100.609 37.5996 99.3355 38.7295 98.5614 40.1871H98.5965Z" fill="#B3B3B3"/>
<path d="M78.0162 0.026123H79.1386V5.05059H78.0162V3.07763H76.0169V5.05059H74.8945V0.026123H76.0169V2.13061H78.0162V0.026123Z" fill="#B3B3B3"/>
<path d="M85.4169 5.05059L84.9434 3.96326H82.8389L82.3742 5.05059H81.1816L83.3563 0.026123H84.4348L86.6095 5.05059H85.4169ZM83.8999 1.5431L83.2686 2.99871H84.5225L83.8999 1.5431Z" fill="#B3B3B3"/>
<path d="M92.0901 0.482224C92.2754 0.657559 92.4189 0.872337 92.51 1.11064C92.6011 1.34895 92.6374 1.60468 92.6162 1.85892C92.6311 2.11135 92.5874 2.3638 92.4885 2.59654C92.3896 2.82928 92.2383 3.03599 92.0463 3.20053C91.5572 3.52454 90.9739 3.67578 90.389 3.6302H89.7226V5.03318H88.6265V0.00871976H90.3802C90.9883 -0.0414977 91.5944 0.126349 92.0901 0.482224ZM91.2658 2.45518C91.4116 2.2682 91.4834 2.03408 91.4675 1.79753C91.4788 1.68007 91.4607 1.56165 91.4148 1.45295C91.3689 1.34426 91.2966 1.24871 91.2045 1.17496C90.9569 1.03417 90.673 0.970079 90.389 0.99081H89.7489V2.68318H90.503C90.6389 2.69793 90.7764 2.68536 90.9074 2.64621C91.0384 2.60706 91.1603 2.5421 91.2658 2.45518Z" fill="#B3B3B3"/>
<path d="M98.386 0.482079C98.5713 0.657414 98.7148 0.872192 98.8059 1.1105C98.897 1.3488 98.9333 1.60454 98.9122 1.85877C98.9348 2.11131 98.8982 2.36564 98.8054 2.60157C98.7125 2.83751 98.5659 3.04854 98.3773 3.21792C97.8882 3.54194 97.3049 3.69316 96.72 3.64758H96.0448V5.05058H94.9312V0.0261161H96.6849C97.2883 -0.0309482 97.8921 0.130882 98.386 0.482079ZM97.5618 2.45504C97.7114 2.27011 97.7837 2.03442 97.7635 1.79738C97.7748 1.67993 97.7567 1.56151 97.7107 1.45281C97.6648 1.34411 97.5925 1.24857 97.5004 1.17481C97.2528 1.03403 96.969 0.969934 96.6849 0.990665H96.0448V2.68303H96.8077C96.9423 2.69861 97.0786 2.68641 97.2083 2.6472C97.3381 2.60799 97.4583 2.54258 97.5618 2.45504Z" fill="#B3B3B3"/>
<path d="M103.358 5.05059H102.236V3.06886L100.482 0.026123H101.692L102.779 1.89385L103.867 0.026123H105.077L103.323 3.06886L103.358 5.05059Z" fill="#B3B3B3"/>
<path d="M31.998 36.5303H89.7838L85.68 42.265L89.7838 47.991H31.998L36.1018 42.265L31.998 36.5303Z" fill="#616972"/>
<path d="M43.4324 41.3182H42.2925V40.301H45.8876V41.3182H44.7477V44.1943H43.4324V41.3182Z" fill="#000D1C"/>
<path d="M49.588 44.0275C49.2632 43.8649 48.9907 43.6142 48.8016 43.3041C48.6124 42.994 48.5142 42.637 48.5182 42.2738C48.5142 41.9068 48.6112 41.5458 48.7988 41.2303C48.9895 40.9194 49.2627 40.6675 49.588 40.5025C49.9383 40.3293 50.3239 40.2393 50.7147 40.2393C51.1056 40.2393 51.4912 40.3293 51.8415 40.5025C52.1668 40.6675 52.44 40.9194 52.6307 41.2303C52.8182 41.5458 52.9153 41.9068 52.9113 42.2738C52.9153 42.637 52.8171 42.994 52.6279 43.3041C52.4388 43.6142 52.1663 43.8649 51.8415 44.0275C51.4894 44.1945 51.1045 44.2811 50.7147 44.2811C50.325 44.2811 49.9401 44.1945 49.588 44.0275ZM51.1576 43.1068C51.2917 43.0233 51.4007 42.9052 51.4732 42.7648C51.554 42.6047 51.5932 42.4268 51.5872 42.2475C51.5933 42.071 51.554 41.8959 51.4732 41.7389C51.3962 41.606 51.2855 41.4957 51.1524 41.4191C51.0193 41.3424 50.8684 41.302 50.7147 41.302C50.5611 41.302 50.4102 41.3424 50.2771 41.4191C50.144 41.4957 50.0333 41.606 49.9563 41.7389C49.8798 41.8975 49.8408 42.0715 49.8423 42.2475C49.8407 42.4263 49.8797 42.6032 49.9563 42.7648C50.0288 42.9052 50.1378 43.0233 50.2719 43.1068C50.4081 43.1841 50.5626 43.2234 50.7191 43.2208C50.8727 43.2219 51.0239 43.1826 51.1576 43.1068Z" fill="#000D1C"/>
<path d="M62.3817 42.7826V44.1943H61.0664V42.765L59.6021 40.301H60.9875L61.7767 41.6514L62.5834 40.301H63.8461L62.3817 42.7826Z" fill="#000D1C"/>
<path d="M67.2657 44.0275C66.941 43.8649 66.6685 43.6142 66.4793 43.3041C66.2902 42.994 66.192 42.637 66.1959 42.2738C66.1919 41.9068 66.289 41.5458 66.4765 41.2303C66.6673 40.9194 66.9404 40.6675 67.2657 40.5025C67.6161 40.3293 68.0017 40.2393 68.3925 40.2393C68.7833 40.2393 69.1689 40.3293 69.5193 40.5025C69.8445 40.6675 70.1177 40.9194 70.3084 41.2303C70.496 41.5458 70.5931 41.9068 70.589 42.2738C70.593 42.637 70.4948 42.994 70.3057 43.3041C70.1165 43.6142 69.844 43.8649 69.5193 44.0275C69.1671 44.1945 68.7822 44.2811 68.3925 44.2811C68.0027 44.2811 67.6179 44.1945 67.2657 44.0275ZM68.8353 43.1068C68.9694 43.0233 69.0785 42.9052 69.151 42.7648C69.2317 42.6047 69.271 42.4268 69.265 42.2475C69.271 42.071 69.2317 41.8959 69.151 41.7389C69.0739 41.606 68.9633 41.4957 68.8301 41.4191C68.697 41.3424 68.5461 41.302 68.3925 41.302C68.2389 41.302 68.0879 41.3424 67.9548 41.4191C67.8217 41.4957 67.7111 41.606 67.634 41.7389C67.5532 41.8959 67.514 42.071 67.52 42.2475C67.514 42.4268 67.5532 42.6047 67.634 42.7648C67.7065 42.9052 67.8156 43.0233 67.9497 43.1068C68.0833 43.1826 68.2345 43.2219 68.3881 43.2208C68.5447 43.2234 68.6991 43.1841 68.8353 43.1068Z" fill="#000D1C"/>
<path d="M74.0355 43.7997C73.8625 43.6202 73.7287 43.4067 73.6427 43.1727C73.5566 42.9387 73.5202 42.6894 73.5357 42.4406V40.301H74.851V42.4055C74.8342 42.6235 74.8864 42.8413 75.0001 43.0281C75.054 43.0933 75.1227 43.1449 75.2005 43.1784C75.2782 43.2119 75.3628 43.2265 75.4473 43.221C75.5306 43.2273 75.6142 43.213 75.6906 43.1794C75.7671 43.1457 75.8341 43.0938 75.8857 43.0281C76.0066 42.8441 76.0622 42.6249 76.0436 42.4055V40.301H77.3326V42.4406C77.348 42.6894 77.3116 42.9387 77.2256 43.1727C77.1395 43.4067 77.0057 43.6202 76.8327 43.7997C76.4334 44.1119 75.941 44.2815 75.4341 44.2815C74.9272 44.2815 74.4349 44.1119 74.0355 43.7997Z" fill="#000D1C"/>
</svg>
