<svg width="25" height="26" viewBox="0 0 25 26" fill="none" xmlns="http://www.w3.org/2000/svg">
<path fill-rule="evenodd" clip-rule="evenodd" d="M12.5 23.9375C15.4008 23.9375 18.1828 22.7852 20.234 20.734C22.2852 18.6828 23.4375 15.9008 23.4375 13C23.4375 10.0992 22.2852 7.3172 20.234 5.26602C18.1828 3.21484 15.4008 2.0625 12.5 2.0625C9.59919 2.0625 6.8172 3.21484 4.76602 5.26602C2.71484 7.3172 1.5625 10.0992 1.5625 13C1.5625 15.9008 2.71484 18.6828 4.76602 20.734C6.8172 22.7852 9.59919 23.9375 12.5 23.9375ZM12.5 25.5C15.8152 25.5 18.9946 24.183 21.3388 21.8388C23.683 19.4946 25 16.3152 25 13C25 9.68479 23.683 6.50537 21.3388 4.16117C18.9946 1.81696 15.8152 0.5 12.5 0.5C9.18479 0.5 6.00537 1.81696 3.66117 4.16117C1.31696 6.50537 0 9.68479 0 13C0 16.3152 1.31696 19.4946 3.66117 21.8388C6.00537 24.183 9.18479 25.5 12.5 25.5Z" fill="#BFBFBF"/>
<path fill-rule="evenodd" clip-rule="evenodd" d="M6.25 13C6.25 13.2072 6.33231 13.4059 6.47882 13.5524C6.62534 13.699 6.82405 13.7813 7.03125 13.7813H16.0828L12.7281 17.1344C12.6555 17.207 12.5979 17.2933 12.5586 17.3882C12.5192 17.4831 12.499 17.5848 12.499 17.6875C12.499 17.7902 12.5192 17.892 12.5586 17.9869C12.5979 18.0818 12.6555 18.168 12.7281 18.2406C12.8008 18.3133 12.887 18.3709 12.9819 18.4102C13.0768 18.4495 13.1785 18.4697 13.2813 18.4697C13.384 18.4697 13.4857 18.4495 13.5806 18.4102C13.6755 18.3709 13.7617 18.3133 13.8344 18.2406L18.5219 13.5531C18.5946 13.4806 18.6524 13.3944 18.6917 13.2994C18.7311 13.2045 18.7514 13.1028 18.7514 13C18.7514 12.8972 18.7311 12.7955 18.6917 12.7006C18.6524 12.6057 18.5946 12.5195 18.5219 12.4469L13.8344 7.75939C13.7617 7.68675 13.6755 7.62913 13.5806 7.58982C13.4857 7.55051 13.384 7.53027 13.2813 7.53027C13.1785 7.53027 13.0768 7.55051 12.9819 7.58982C12.887 7.62913 12.8008 7.68675 12.7281 7.75939C12.6555 7.83202 12.5979 7.91826 12.5586 8.01316C12.5192 8.10807 12.499 8.20979 12.499 8.31251C12.499 8.41524 12.5192 8.51695 12.5586 8.61186C12.5979 8.70677 12.6555 8.793 12.7281 8.86564L16.0828 12.2188H7.03125C6.82405 12.2188 6.62534 12.3011 6.47882 12.4476C6.33231 12.5941 6.25 12.7928 6.25 13Z" fill="#BFBFBF"/>
</svg>
