<svg width="23" height="23" viewBox="0 0 23 23" fill="none" xmlns="http://www.w3.org/2000/svg">
<path d="M23 11.5C23 17.8527 17.8508 23 11.5 23C5.14917 23 0 17.8527 0 11.5C0 5.15103 5.14917 0 11.5 0C17.8508 0 23 5.15103 23 11.5ZM11.5 13.8185C10.3219 13.8185 9.36694 14.7736 9.36694 15.9516C9.36694 17.1297 10.3219 18.0847 11.5 18.0847C12.6781 18.0847 13.6331 17.1297 13.6331 15.9516C13.6331 14.7736 12.6781 13.8185 11.5 13.8185ZM9.47484 6.15129L9.81882 12.4577C9.83491 12.7529 10.0789 12.9839 10.3744 12.9839H12.6256C12.9211 12.9839 13.1651 12.7529 13.1812 12.4577L13.5252 6.15129C13.5425 5.83254 13.2888 5.56452 12.9695 5.56452H10.0304C9.71119 5.56452 9.45745 5.83254 9.47484 6.15129Z" fill="#BA0015"/>
</svg>
